Coordinates
version=1
nRows=13
nColumns=40
inDegrees=yes

Units are S.I. units (second, meters, Newtons, ...)
Angles are in degrees.

endheader
time	pelvis_tilt	pelvis_list	pelvis_rotation	pelvis_tx	pelvis_ty	pelvis_tz	hip_flexion_r	hip_adduction_r	hip_rotation_r	knee_angle_r	knee_angle_r_beta	ankle_angle_r	subtalar_angle_r	mtp_angle_r	hip_flexion_l	hip_adduction_l	hip_rotation_l	knee_angle_l	knee_angle_l_beta	ankle_angle_l	subtalar_angle_l	mtp_angle_l	lumbar_extension	lumbar_bending	lumbar_rotation	arm_flex_r	arm_add_r	arm_rot_r	elbow_flex_r	pro_sup_r	wrist_flex_r	wrist_dev_r	arm_flex_l	arm_add_l	arm_rot_l	elbow_flex_l	pro_sup_l	wrist_flex_l	wrist_dev_l
     53.74000000	     -4.61117046	     -6.18014488	     -1.96793356	      1.12874818	      0.93406701	      0.42265039	     31.13307793	     -5.52101524	     -5.18277170	     46.82666156	     46.82666156	      2.75750868	     -8.59318767	     -0.57505619	     13.95088382	     -7.35779161	     -8.50381064	     21.52396850	     21.52396850	     13.43325348	    -10.43261974	     -2.11251911	    -11.75786645	      5.38753462	      1.66092200	      8.87432129	    -13.40093416	     -0.16551006	     32.06915700	     46.64681975	      0.00000000	      0.00000000	     20.01381306	    -14.62437516	     -1.68546760	     49.45790094	     45.89538608	      0.00000000	      0.00000000
     53.75285714	     -4.61789382	     -6.51308822	     -2.31039098	      1.12855795	      0.93427674	      0.42297254	     30.90703240	     -5.01132860	     -5.54768644	     43.22839461	     43.22839461	      2.76842583	     -7.28943785	     -0.60569533	     13.39137881	     -7.70516603	     -8.54168360	     21.26298838	     21.26298838	     13.68398529	    -10.67941434	     -2.08896361	    -12.05657069	      5.81610932	      2.26982758	      7.33131382	    -13.91142120	     -0.34211721	     29.86287221	     46.73297439	      0.00000000	      0.00000000	     20.51990853	    -14.37988036	     -1.94811427	     51.62630175	     45.95673214	      0.00000000	      0.00000000
     53.76571429	     -4.85853754	     -6.42460689	     -2.72052679	      1.12827496	      0.93376623	      0.42340227	     30.96446292	     -4.83632747	     -5.63223731	     39.57240531	     39.57240531	      2.30654808	     -6.14314348	     -2.20930907	     13.15497767	     -7.62395983	     -8.73697360	     21.12381732	     21.12381732	     13.85887952	    -10.99239329	     -2.08118516	    -12.06710404	      5.71287002	      1.45892360	      7.32556272	    -13.46996874	     -1.65350760	     25.85204258	     46.97681044	      0.00000000	      0.00000000	     19.23964856	    -15.38705517	     -2.96274427	     56.41180479	     46.13863070	      0.00000000	      0.00000000
     53.77857143	     -5.04887691	     -6.43316740	     -3.07694719	      1.12807503	      0.93330734	      0.42386360	     30.80741689	     -4.57106959	     -5.93864875	     35.74990858	     35.74990858	      2.22466210	     -4.49338938	     -2.35649411	     12.90293533	     -7.65867556	     -8.88992738	     21.06339934	     21.06339934	     14.13598463	    -11.21546576	     -2.10735597	    -12.09259331	      5.76991787	      1.43033700	      5.94357039	    -13.66565829	     -2.37077414	     24.69167518	     47.05899008	      0.00000000	      0.00000000	     19.48759568	    -15.54832966	     -3.68516964	     57.92061628	     46.25260923	      0.00000000	      0.00000000
     53.79142857	     -5.29867891	     -6.46428742	     -3.41466470	      1.12797438	      0.93272591	      0.42447253	     30.58501392	     -4.19656136	     -6.23431569	     31.82099200	     31.82099200	      2.14365678	     -2.83434637	     -1.86826768	     12.72882066	     -7.72693430	     -9.01318431	     21.03355488	     21.03355488	     14.38517984	    -11.45262525	     -2.15341357	    -12.01429754	      5.88895746	      1.37040096	      4.43336116	    -13.92999000	     -2.59205070	     24.02374781	     47.08882968	      0.00000000	      0.00000000	     19.82091003	    -15.77263447	     -3.96503404	     58.89632557	     46.29928501	      0.00000000	      0.00000000
     53.80428571	     -5.46118506	     -6.31663791	     -3.76224301	      1.12805798	      0.93207571	      0.42510539	     30.23767178	     -4.07298639	     -6.81714272	     28.02645991	     28.02645991	      2.11094262	     -0.39141713	     -1.48603766	     12.42382807	     -7.60010954	     -9.21660629	     20.96396092	     20.96396092	     14.66346375	    -11.68893181	     -2.13583365	    -12.08272857	      5.75073438	      1.53775183	      2.76719438	    -14.14474626	     -3.17709231	     23.52821959	     47.13653277	      0.00000000	      0.00000000	     19.93340292	    -15.86171563	     -4.42983473	     61.06470158	     46.38601177	      0.00000000	      0.00000000
     53.81714286	     -5.81314546	     -6.22301112	     -4.07345666	      1.12821569	      0.93115106	      0.42599061	     29.97546911	     -3.71766784	     -7.14348478	     24.27138667	     24.27138667	      1.86269332	      1.34203332	     -0.68343920	     12.34429490	     -7.55518531	     -9.35429133	     20.91111645	     20.91111645	     14.90482232	    -11.88709651	     -2.18888791	    -11.81306626	      5.68516602	      1.40807473	      1.28729350	    -14.28909043	     -3.42392453	     23.11319171	     47.15813734	      0.00000000	      0.00000000	     20.05327782	    -16.07813614	     -4.67528910	     62.08607886	     46.42771816	      0.00000000	      0.00000000
     53.83000000	     -5.89281027	     -6.02785784	     -4.33132656	      1.12876528	      0.93044711	      0.42672151	     29.50017867	     -3.66970004	     -8.22694591	     21.09373230	     21.09373230	      1.98337388	      4.26069636	      0.90767483	     11.91589286	     -7.34803560	     -9.47070758	     20.80031220	     20.80031220	     15.22379528	    -12.09009919	     -2.13205522	    -11.94649808	      5.53023970	      1.27078537	     -0.47758619	    -14.42390797	     -4.78856028	     23.63140272	     47.21601616	      0.00000000	      0.00000000	     19.41322567	    -16.32226455	     -5.36687362	     65.39179661	     46.56524223	      0.00000000	      0.00000000
     53.84285714	     -6.13752244	     -5.89704006	     -4.57909990	      1.12940965	      0.92951708	      0.42786621	     29.11453479	     -3.29821760	     -8.65469633	     18.11822828	     18.11822828	      1.63876175	      5.66462873	      1.93524160	     11.68653220	     -7.26611776	     -9.59874811	     20.73455676	     20.73455676	     15.50171172	    -12.24750655	     -2.20964962	    -11.71448025	      5.43477352	      1.21472895	     -1.87406892	    -14.48002685	     -5.01645932	     23.26584672	     47.23294305	      0.00000000	      0.00000000	     19.55760490	    -16.39040560	     -5.54769886	     66.17964763	     46.60017744	      0.00000000	      0.00000000
     53.85571429	     -6.21347832	     -5.73106172	     -4.77238413	      1.13037380	      0.92877905	      0.42897836	     28.74463440	     -3.15461564	     -9.76966084	     16.10763113	     16.10763113	      2.07310632	      7.91421678	      4.59447911	     11.20555146	     -7.10851910	     -9.69106471	     20.56195348	     20.56195348	     15.79551167	    -12.37765047	     -2.23003235	    -11.74252677	      5.29431412	      1.17242253	     -3.66487128	    -14.48741654	     -6.40734903	     24.11702587	     47.26363496	      0.00000000	      0.00000000	     19.14196205	    -16.49020122	     -5.92464186	     68.48825059	     46.71325563	      0.00000000	      0.00000000
     53.86857143	     -6.38978915	     -5.59204979	     -4.92843099	      1.13153508	      0.92792268	      0.43036849	     28.38142778	     -2.82004197	    -10.29587927	     14.36337986	     14.36337986	      1.78352887	      8.69673375	      5.31457468	     10.83138390	     -7.00932582	     -9.78920082	     20.39478065	     20.39478065	     16.06932057	    -12.45227537	     -2.27565566	    -11.48453705	      5.18861573	      1.17500270	     -4.96083501	    -14.44376710	     -6.57925029	     23.78582954	     47.27349911	      0.00000000	      0.00000000	     19.22597817	    -16.43077073	     -6.01008562	     69.06351725	     46.73795655	      0.00000000	      0.00000000
     53.88142857	     -6.39027588	     -5.49988749	     -5.02875370	      1.13302818	      0.92729713	      0.43185977	     27.90377216	     -2.53670347	    -11.10639234	     13.35603103	     13.35603103	      1.70166337	      9.54212945	      5.96075527	     10.20878526	     -6.94323238	     -9.83951433	     20.15936496	     20.15936496	     16.38110221	    -12.46410131	     -2.29610517	    -11.45084630	      5.12009340	      1.26197352	     -6.37003185	    -14.39529840	     -6.92251719	     23.80056813	     47.27647656	      0.00000000	      0.00000000	     19.19120612	    -16.29891792	     -6.04652427	     70.01829010	     46.77084746	      0.00000000	      0.00000000
     53.89428571	     -6.53911453	     -5.37108515	     -5.08406777	      1.13464105	      0.92637147	      0.43352748	     27.70466545	     -2.29188609	    -11.63634219	     13.06297822	     13.06297822	      1.66384772	      9.59236248	      6.09765179	      9.76879033	     -6.86517483	     -9.86287830	     19.95514847	     19.95514847	     16.67624920	    -12.44976456	     -2.33509688	    -11.14130551	      5.03755568	      1.09469782	     -7.48053430	    -14.23252584	     -7.05770000	     23.66616070	     47.27754471	      0.00000000	      0.00000000	     19.04003608	    -16.30239946	     -6.07479746	     70.38830867	     46.78376789	      0.00000000	      0.00000000
